<svg xmlns="http://www.w3.org/2000/svg" width="13" height="14" fill="#333"><path d="M12.594 2.015h-3.04V1.54C9.553.7 8.832 0 7.945 0h-2.9C4.17 0 3.447.7 3.447 1.54v.475H.406c-.225 0-.406.173-.406.4s.18.4.406.4h.733v9.13c0 1.145.974 2.078 2.17 2.078H9.7c1.196 0 2.17-.933 2.17-2.078v-9.13h.733c.225 0 .406-.173.406-.4s-.18-.4-.406-.4zM4.258 1.54c0-.42.358-.763.796-.763h2.9c.44 0 .796.343.796.763v.475H4.258V1.54zm6.8 10.382c0 .717-.6 1.3-1.358 1.3H3.3c-.748 0-1.358-.584-1.358-1.3v-9.13h9.102l-.003 9.13zM6.5 11.83c.225 0 .406-.173.406-.4V4.574c0-.216-.18-.4-.406-.4s-.406.173-.406.4v6.865c0 .216.18.392.406.392zm-2.647-.43c.225 0 .406-.173.406-.4V5c0-.216-.18-.4-.406-.4s-.406.173-.406.4v6.013c0 .216.183.4.406.4zm5.295 0c.225 0 .406-.173.406-.4V5c0-.216-.18-.4-.406-.4s-.406.173-.406.4v6.013c0 .216.18.4.406.4z"/></svg>