<svg width="17" height="17" viewBox="0 0 17 17" fill="none" xmlns="http://www.w3.org/2000/svg"><path d="M.585 7.56A2.486 2.486 0 0 0 0 9.207c0 .576.202 1.074.605 1.495.404.42.882.63 1.435.63h2.943a1.887 1.887 0 0 1-.202.51 9.312 9.312 0 0 0-.399.819 4.659 4.659 0 0 0-.201.664c-.068.28-.101.56-.101.84 0 .178.002.322.005.432.003.111.021.277.053.498.032.222.075.406.128.554.053.147.138.313.255.498.117.184.258.334.425.448.166.114.379.21.637.288.26.077.551.116.877.116a.64.64 0 0 0 .478-.21 1.94 1.94 0 0 0 .362-.554c.099-.221.168-.413.207-.575.039-.162.083-.388.133-.675.064-.31.111-.533.143-.67a3.71 3.71 0 0 1 .186-.537c.092-.221.202-.398.33-.53.233-.244.59-.687 1.073-1.329.347-.472.704-.918 1.073-1.34.368-.42.637-.637.807-.652a.686.686 0 0 0 .457-.227.682.682 0 0 0 .191-.481V2.125a.676.676 0 0 0-.202-.492.69.69 0 0 0-.478-.216c-.247-.008-.807-.17-1.678-.487a56.88 56.88 0 0 0-1.28-.437c-.309-.1-.74-.207-1.291-.321A7.591 7.591 0 0 0 5.44 0H4.07c-.942.015-1.64.303-2.093.863-.41.51-.584 1.177-.52 2.004a2.17 2.17 0 0 0-.574 1.04c-.12.45-.12.881 0 1.294-.326.45-.478.956-.457 1.517 0 .236.052.516.159.841zM13.26 9.916h3.06a.64.64 0 0 0 .478-.21.695.695 0 0 0 .202-.498V2.125a.695.695 0 0 0-.202-.498.642.642 0 0 0-.478-.21h-3.06a.641.641 0 0 0-.478.21.695.695 0 0 0-.202.498v7.083c0 .192.067.358.202.498a.64.64 0 0 0 .478.21zm1.222-6.878a.649.649 0 0 1 .478-.205c.191 0 .352.068.483.205a.7.7 0 0 1 .197.503.704.704 0 0 1-.197.498.636.636 0 0 1-.483.21.64.64 0 0 1-.478-.21.695.695 0 0 1-.202-.498c0-.199.067-.367.202-.503z" fill="#E30613"/></svg>