<svg width="17" height="17" viewBox="0 0 17 17" fill="none" xmlns="http://www.w3.org/2000/svg"><path d="M16.415 9.44c.39-.464.585-1.014.585-1.648 0-.576-.202-1.074-.605-1.494-.404-.421-.882-.632-1.434-.632h-2.944a1.879 1.879 0 0 1 .202-.51 9.271 9.271 0 0 0 .398-.819 4.65 4.65 0 0 0 .202-.663c.068-.28.101-.56.101-.84 0-.178-.002-.322-.005-.432a4.949 4.949 0 0 0-.053-.499 2.885 2.885 0 0 0-.128-.553 2.614 2.614 0 0 0-.255-.498 1.523 1.523 0 0 0-.425-.448 2.283 2.283 0 0 0-.637-.288A3.054 3.054 0 0 0 10.54 0a.641.641 0 0 0-.478.21A1.926 1.926 0 0 0 9.7.764a3.38 3.38 0 0 0-.207.575c-.039.163-.083.388-.133.675-.064.31-.111.533-.143.67a3.639 3.639 0 0 1-.186.537 1.705 1.705 0 0 1-.33.53c-.233.244-.59.687-1.073 1.329a20.15 20.15 0 0 1-1.073 1.34c-.368.42-.637.637-.807.652a.686.686 0 0 0-.457.227.682.682 0 0 0-.191.481v7.095c0 .192.067.356.201.492a.69.69 0 0 0 .479.216c.247.008.807.17 1.678.487.546.192.972.338 1.28.437.309.1.74.207 1.291.321a7.592 7.592 0 0 0 1.53.172h1.371c.942-.015 1.64-.303 2.093-.863.41-.51.584-1.177.52-2.004.277-.272.468-.62.574-1.04.12-.45.12-.881 0-1.294.326-.45.478-.956.457-1.517 0-.236-.052-.516-.159-.841zM3.74 7.083H.68a.64.64 0 0 0-.478.21.695.695 0 0 0-.202.499v7.083c0 .192.067.358.202.498s.294.21.478.21h3.06c.184 0 .343-.07.478-.21a.695.695 0 0 0 .202-.498V7.792a.695.695 0 0 0-.202-.498.64.64 0 0 0-.478-.21zm-1.222 6.88a.649.649 0 0 1-.478.204.644.644 0 0 1-.483-.205.7.7 0 0 1-.197-.503c0-.192.066-.358.197-.498a.636.636 0 0 1 .483-.21.64.64 0 0 1 .478.21c.135.14.202.306.202.498a.686.686 0 0 1-.202.503z" fill="#FFCD19"/></svg>