<svg width="25" height="27" viewBox="0 0 25 27" fill="none" xmlns="http://www.w3.org/2000/svg"><path d="M13.726 10.195h-2.941V7.137a.5.5 0 0 0-.49-.51.5.5 0 0 0-.49.51v3.058H6.862a.5.5 0 0 0-.49.51.5.5 0 0 0 .49.51h2.941v3.058a.5.5 0 0 0 .49.51.5.5 0 0 0 .49-.51v-3.058h2.942a.5.5 0 0 0 .49-.51.5.5 0 0 0-.49-.51z" fill="#BDBDBD"/><path d="M24.863 26.137L17.58 18.26a10.889 10.889 0 0 0 3.01-7.555C20.588 4.802 15.97 0 10.293 0 4.618 0 0 4.802 0 10.705 0 16.608 4.618 21.41 10.294 21.41c2.492 0 4.779-.926 6.561-2.463l7.302 7.896a.478.478 0 0 0 .693.015.525.525 0 0 0 .013-.721zM.98 10.705c0-5.34 4.178-9.685 9.314-9.685s9.314 4.344 9.314 9.685c0 5.34-4.178 9.685-9.314 9.685S.98 16.046.98 10.705z" fill="#BDBDBD"/></svg>