<svg width="24" height="24" viewBox="0 0 24 24" fill="none" xmlns="http://www.w3.org/2000/svg"><path d="M21.195 18.914l-2.735-3.6c-.545-.714-1.591-.836-2.332-.27l-1.81 1.38a42.11 42.11 0 0 1-.29-.217c-.931-.695-2.206-1.648-3.458-3.298-1.257-1.654-1.835-3.14-2.258-4.225a18.024 18.024 0 0 0-.13-.332l1.215-.925.597-.457c.742-.566.902-1.61.358-2.326l-2.734-3.6C7.074.33 6.028.208 5.286.775l-1.013.778.02.027c-.35.342-.66.75-.91 1.2-.232.43-.398.847-.505 1.273-.887 3.415.266 6.801 3.978 11.687 5.132 6.754 9.977 6.952 10.187 6.958a5.39 5.39 0 0 0 1.363-.154c.495-.12.969-.31 1.39-.558l.018.02 1.023-.764c.74-.567.9-1.61.358-2.327z" fill="#828282"/></svg>