<svg width="17" height="17" viewBox="0 0 17 17" fill="none" xmlns="http://www.w3.org/2000/svg"><path d="M14.58 13.381l-1.935-2.546c-.386-.506-1.126-.592-1.65-.192l-1.28.977a33.55 33.55 0 0 1-.207-.154c-.658-.492-1.56-1.165-2.446-2.333-.89-1.17-1.298-2.222-1.597-2.99l-.092-.234.86-.655.422-.323c.525-.4.638-1.139.253-1.645L4.973.739C4.59.233 3.848.146 3.323.547l-.716.55.015.02A3.722 3.722 0 0 0 1.62 2.866c-.628 2.416.188 4.812 2.815 8.27 3.63 4.778 7.059 4.918 7.207 4.922a3.805 3.805 0 0 0 1.948-.504l.012.014.724-.54c.524-.401.637-1.14.253-1.647z" fill="#E30613"/></svg>