<svg xmlns="http://www.w3.org/2000/svg" width="177" height="177" fill="#333"><path d="M165.13 44.076c-7.9-13.558-18.65-24.293-32.2-32.207C119.36 3.956 104.56 0 88.503 0S57.638 3.956 44.08 11.87s-24.295 18.647-32.2 32.206S0 72.445 0 88.5s3.957 30.86 11.87 44.42 18.65 24.3 32.2 32.2S72.445 177 88.5 177s30.87-3.96 44.43-11.87c13.55-7.9 24.3-18.65 32.2-32.2S177 104.56 177 88.5s-3.96-30.865-11.87-44.424zm-8.75 73.064c-3.92 9.1-9.16 16.94-15.73 23.5-6.57 6.57-14.4 11.8-23.5 15.73s-18.65 5.88-28.637 5.88a71.66 71.66 0 0 1-28.636-5.88c-9.103-3.92-16.94-9.16-23.5-15.73-6.566-6.56-11.8-14.4-15.73-23.5S14.76 98.486 14.76 88.5s1.96-19.532 5.877-28.636 9.16-16.94 15.73-23.5 14.406-11.8 23.5-15.73 18.65-5.875 28.636-5.875 19.537 1.958 28.637 5.875 16.94 9.162 23.5 15.73 11.8 14.405 15.73 23.5 5.87 18.648 5.87 28.636c.01 9.987-1.95 19.53-5.87 28.64zm-41.6-12.74c-7.76-5.683-16.52-8.526-26.275-8.526S70 98.716 62.23 104.4c-7.76 5.7-13.06 13.18-15.9 22.47-.614 1.92-.462 3.8.46 5.6s2.38 3.02 4.38 3.63c1.92.62 3.783.46 5.588-.46s3.014-2.38 3.63-4.38c1.92-6.15 5.474-11.12 10.66-14.93 5.185-3.8 11.004-5.7 17.457-5.7s12.277 1.9 17.457 5.7c5.2 3.8 8.74 8.78 10.66 14.93a6.91 6.91 0 0 0 3.7 4.38c1.84.92 3.73 1.08 5.64.46 1.93-.6 3.35-1.83 4.27-3.63s1.08-3.67.46-5.6c-2.84-9.3-8.14-16.78-15.9-22.47zM59 73.75c4.07 0 7.547-1.444 10.428-4.323S73.75 63.072 73.75 59s-1.44-7.547-4.322-10.428S63.072 44.25 59 44.25s-7.548 1.44-10.43 4.322S44.25 54.928 44.25 59s1.44 7.55 4.322 10.428S54.93 73.75 59 73.75zm59-29.5c-4.08 0-7.55 1.44-10.44 4.322-2.87 2.882-4.32 6.357-4.32 10.43s1.45 7.548 4.32 10.428c2.9 2.88 6.36 4.322 10.44 4.322 4.06 0 7.54-1.443 10.42-4.322 2.9-2.88 4.33-6.357 4.33-10.428s-1.44-7.548-4.33-10.43c-2.88-2.88-6.36-4.322-10.42-4.322z"/></svg>