<svg width="20" height="23" viewBox="0 0 20 23" fill="none" xmlns="http://www.w3.org/2000/svg">
<path d="M19.1946 18.9138L16.46 15.3143C15.915 14.6 14.8688 14.4779 14.1282 15.0435L12.3182 16.4249C12.225 16.3557 12.1286 16.2835 12.0274 16.207C11.0965 15.5118 9.82253 14.5592 8.56965 12.909C7.31288 11.2552 6.73491 9.76878 6.3121 8.6836C6.26755 8.56867 6.22494 8.4579 6.18234 8.35242L7.39697 7.42661L7.99433 6.97002C8.73605 6.40363 8.89557 5.36044 8.35226 4.64448L5.61772 1.04469C5.07429 0.329608 4.02767 0.207429 3.28595 0.773814L2.27265 1.55195L2.29374 1.57949C1.94301 1.9214 1.63349 2.32858 1.38321 2.77899C1.15056 3.20847 0.985394 3.626 0.878024 4.05226C-0.00948247 7.46684 1.14381 10.8534 4.85625 15.7394C9.98803 22.4929 14.8333 22.6909 15.0427 22.6969C15.4995 22.7039 15.9449 22.6545 16.4058 22.5434C16.9011 22.4229 17.3746 22.2323 17.7964 21.9849L17.8135 22.0049L18.8368 21.2406C19.5771 20.6741 19.7375 19.6307 19.1946 18.9138Z" fill="#828282"/>
</svg>
