<svg width="17" height="17" viewBox="0 0 17 17" fill="none" xmlns="http://www.w3.org/2000/svg">
<path d="M16.4154 9.44082C16.8049 8.97603 16.9998 8.42638 16.9998 7.79177C16.9998 7.21626 16.7977 6.71829 16.3947 6.2975C15.991 5.87675 15.5129 5.66649 14.9605 5.66649H12.0175C12.0458 5.56322 12.0741 5.47468 12.1024 5.40091C12.1304 5.32714 12.1698 5.24589 12.2192 5.15735C12.2686 5.06877 12.3041 5.00233 12.3253 4.95814C12.4528 4.70741 12.5504 4.50067 12.6177 4.33848C12.685 4.17598 12.7519 3.95471 12.8194 3.67432C12.8868 3.39409 12.9203 3.11359 12.9203 2.8332C12.9203 2.6562 12.9183 2.51219 12.9149 2.4016C12.9116 2.29092 12.8935 2.12485 12.8619 1.90347C12.8299 1.6822 12.7873 1.49772 12.7343 1.35022C12.6811 1.20268 12.596 1.03653 12.4793 0.852206C12.3624 0.66753 12.2208 0.518324 12.0542 0.403891C11.8876 0.289534 11.6752 0.19363 11.4167 0.116217C11.1579 0.0387261 10.8659 -1.24216e-08 10.5399 -1.24216e-08C10.3557 -1.24216e-08 10.1965 0.0701256 10.0618 0.210338C9.92012 0.357877 9.79951 0.54232 9.70045 0.763589C9.60123 0.984975 9.53213 1.17682 9.49313 1.33921C9.45416 1.50152 9.40984 1.72662 9.36046 2.0143C9.29649 2.32434 9.24889 2.54739 9.21681 2.68388C9.18499 2.82037 9.12284 2.99927 9.03085 3.22058C8.93867 3.44204 8.829 3.61901 8.70147 3.75189C8.46776 3.99533 8.1101 4.43807 7.62832 5.07994C7.28115 5.55209 6.92348 5.99847 6.55517 6.41907C6.18679 6.83974 5.91765 7.05737 5.7477 7.07214C5.57074 7.08687 5.41842 7.1625 5.29089 7.29907C5.16336 7.43556 5.09961 7.59608 5.09961 7.78049V14.8748C5.09961 15.0667 5.16686 15.2308 5.30146 15.3673C5.43599 15.5039 5.59538 15.5758 5.77955 15.5832C6.02744 15.5906 6.58703 15.7528 7.45832 16.0703C8.00366 16.2619 8.43036 16.4078 8.7385 16.5073C9.04656 16.6068 9.47716 16.7138 10.0292 16.8284C10.5818 16.9427 11.0917 17 11.5591 17H11.7398H12.5473H12.9298C13.8721 16.9853 14.5695 16.6974 15.0229 16.1368C15.4336 15.6276 15.6071 14.9598 15.5436 14.1335C15.8198 13.8605 16.0112 13.5138 16.1173 13.0932C16.2375 12.6433 16.2375 12.2117 16.1173 11.7985C16.443 11.3484 16.5954 10.843 16.574 10.2823C16.5749 10.0459 16.5219 9.76559 16.4154 9.44082Z" fill="#FFCD19"/>
<path d="M3.74003 7.0835H0.680128C0.495843 7.0835 0.336454 7.15362 0.201887 7.29383C0.0673206 7.43397 0 7.6 0 7.79185V14.8754C0 15.067 0.0673206 15.2331 0.201925 15.3734C0.336603 15.5134 0.495992 15.5836 0.680165 15.5836H3.74003C3.92417 15.5836 4.08348 15.5134 4.21813 15.3734C4.35269 15.2331 4.41998 15.067 4.41998 14.8754V7.79185C4.41998 7.6 4.35266 7.43401 4.21813 7.29383C4.08352 7.15358 3.92421 7.0835 3.74003 7.0835ZM2.5181 13.9621C2.38354 14.0986 2.22419 14.1668 2.04001 14.1668C1.84873 14.1668 1.68756 14.0986 1.5566 13.9621C1.42557 13.8256 1.36007 13.6578 1.36007 13.4585C1.36007 13.2667 1.42553 13.1006 1.5566 12.9605C1.68759 12.8203 1.84873 12.7501 2.04001 12.7501C2.22419 12.7501 2.38354 12.8203 2.5181 12.9605C2.65271 13.1006 2.72003 13.2667 2.72003 13.4585C2.72003 13.6578 2.65286 13.8256 2.5181 13.9621Z" fill="#FFCD19"/>
</svg>
