<svg width="17" height="17" viewBox="0 0 17 17" fill="none" xmlns="http://www.w3.org/2000/svg">
<path d="M0.58461 7.55918C0.195051 8.02397 0.000197411 8.57362 0.000197411 9.20823C0.000197411 9.78374 0.202345 10.2817 0.605264 10.7025C1.009 11.1233 1.48706 11.3335 2.03954 11.3335H4.98252C4.95424 11.4368 4.92588 11.5253 4.8976 11.5991C4.86957 11.6729 4.8302 11.7541 4.78082 11.8427C4.7314 11.9312 4.69586 11.9977 4.67468 12.0419C4.54722 12.2926 4.44965 12.4993 4.38229 12.6615C4.31504 12.824 4.2481 13.0453 4.18059 13.3257C4.11319 13.6059 4.0797 13.8864 4.0797 14.1668C4.0797 14.3438 4.08175 14.4878 4.0851 14.5984C4.08841 14.7091 4.10646 14.8751 4.13805 15.0965C4.17013 15.3178 4.2127 15.5023 4.2657 15.6498C4.31891 15.7973 4.40399 15.9635 4.52065 16.1478C4.63758 16.3325 4.77918 16.4817 4.94579 16.5961C5.11236 16.7105 5.32478 16.8064 5.58331 16.8838C5.84209 16.9613 6.13411 17 6.46015 17C6.64428 17 6.80352 16.9299 6.93824 16.7897C7.07988 16.6421 7.20049 16.4577 7.29955 16.2364C7.39877 16.015 7.46787 15.8232 7.50687 15.6608C7.54584 15.4985 7.59016 15.2734 7.63954 14.9857C7.70351 14.6757 7.75111 14.4526 7.78319 14.3161C7.81501 14.1796 7.87716 14.0007 7.96915 13.7794C8.06133 13.558 8.171 13.381 8.29853 13.2481C8.53224 13.0047 8.8899 12.5619 9.37168 11.9201C9.71885 11.4479 10.0765 11.0015 10.4448 10.5809C10.8132 10.1603 11.0823 9.94263 11.2523 9.92786C11.4293 9.91313 11.5816 9.8375 11.7091 9.70093C11.8366 9.56444 11.9004 9.40392 11.9004 9.21951V2.12516C11.9004 1.93332 11.8331 1.76923 11.6985 1.63274C11.564 1.49609 11.4046 1.42418 11.2204 1.41678C10.9726 1.40937 10.413 1.24722 9.54168 0.929657C8.99634 0.738119 8.56964 0.592171 8.2615 0.492701C7.95344 0.39323 7.52284 0.286161 6.97076 0.17165C6.41817 0.057333 5.90826 0 5.44089 0H5.26021H4.45266H4.07025C3.12794 0.0147305 2.43055 0.302597 1.97706 0.863214C1.56636 1.37239 1.3929 2.04015 1.45643 2.86654C1.18022 3.13952 0.988832 3.48616 0.882733 3.90683C0.762494 4.35666 0.762494 4.78835 0.882733 5.20146C0.55696 5.65156 0.404641 6.15698 0.42604 6.71775C0.425147 6.9541 0.478141 7.23441 0.58461 7.55918Z" fill="#E30613"/>
<path d="M13.26 9.9165H16.3199C16.5042 9.9165 16.6635 9.84638 16.7981 9.70617C16.9327 9.56603 17 9.4 17 9.20815V2.12458C17 1.93301 16.9327 1.7669 16.7981 1.62657C16.6634 1.48659 16.504 1.41643 16.3198 1.41643H13.26C13.0758 1.41643 12.9165 1.48659 12.7819 1.62657C12.6473 1.7669 12.58 1.93297 12.58 2.12458V9.20815C12.58 9.4 12.6473 9.56599 12.7819 9.70617C12.9165 9.84642 13.0758 9.9165 13.26 9.9165ZM14.4819 3.03792C14.6165 2.90143 14.7758 2.8332 14.96 2.8332C15.1513 2.8332 15.3124 2.90143 15.4434 3.03792C15.5744 3.17441 15.6399 3.34222 15.6399 3.54148C15.6399 3.73328 15.5745 3.89935 15.4434 4.03949C15.3124 4.1797 15.1513 4.2499 14.96 4.2499C14.7758 4.2499 14.6165 4.1797 14.4819 4.03949C14.3473 3.89939 14.28 3.73332 14.28 3.54148C14.28 3.34222 14.3471 3.17445 14.4819 3.03792Z" fill="#E30613"/>
</svg>
