<svg width="21" height="18" viewBox="0 0 21 18" fill="none" xmlns="http://www.w3.org/2000/svg">
<path d="M0.531656 5.41574L0.529905 5.43378L0.526854 5.45164C0.513859 5.52769 0.416214 6.17989 0.695053 7.28423L0.695093 7.28439C1.09631 8.87561 2.02544 10.3337 3.39666 11.4971C3.39716 11.4976 3.39767 11.498 3.39818 11.4984L10.4038 17.3464L17.2909 11.4982L17.2912 11.498C18.6632 10.3348 19.5929 8.87585 19.9942 7.28437L19.9943 7.28427C20.2732 6.17919 20.1753 5.52737 20.1623 5.45265L20.1591 5.43407L20.1573 5.41531C19.8781 2.53637 17.7185 0.5 15.056 0.5C13.2986 0.5 11.7362 1.37855 10.8258 2.83613L10.4064 3.50773L9.98032 2.84032C9.06335 1.40397 7.42773 0.500372 5.63329 0.500372C2.97045 0.500372 0.811199 2.53673 0.531656 5.41574Z" stroke="#333333"/>
</svg>
