<svg width="25" height="27" viewBox="0 0 25 27" fill="none" xmlns="http://www.w3.org/2000/svg">
<path d="M13.726 10.1953H10.7848V7.13671C10.7848 6.85533 10.5652 6.62695 10.2946 6.62695C10.024 6.62695 9.80444 6.85533 9.80444 7.13671V10.1953H6.86325C6.59266 10.1953 6.37305 10.4237 6.37305 10.705C6.37305 10.9864 6.59266 11.2148 6.86325 11.2148H9.80444V14.2734C9.80444 14.5548 10.024 14.7831 10.2946 14.7831C10.5652 14.7831 10.7848 14.5548 10.7848 14.2734V11.2148H13.726C13.9966 11.2148 14.2162 10.9864 14.2162 10.705C14.2162 10.4237 13.9966 10.1953 13.726 10.1953Z" fill="#BDBDBD"/>
<path d="M24.8634 26.137L17.5795 18.2596C19.4374 16.322 20.5884 13.6509 20.5884 10.705C20.5884 4.80195 15.9707 0 10.2942 0C4.61768 0 -9.58355e-09 4.80195 -9.58355e-09 10.705C-9.58355e-09 16.608 4.61768 21.41 10.2942 21.41C12.7859 21.41 15.0726 20.4837 16.855 18.9468L24.1565 26.8435C24.2526 26.948 24.381 27 24.51 27C24.6325 27 24.7546 26.9526 24.8497 26.8578C25.0448 26.6625 25.0506 26.3399 24.8634 26.137ZM0.980398 10.705C0.980398 5.36421 5.15836 1.01952 10.2942 1.01952C15.43 1.01952 19.608 5.36421 19.608 10.705C19.608 16.0457 15.43 20.3904 10.2942 20.3904C5.15836 20.3904 0.980398 16.0457 0.980398 10.705Z" fill="#BDBDBD"/>
</svg>
