<svg width="18" height="17" viewBox="0 0 18 17" fill="none" xmlns="http://www.w3.org/2000/svg">
<path d="M4.5 13.6002V17.0002H13.5V13.6002V11.3335H4.5V13.6002ZM5.625 12.4668H12.375V13.6002H5.625V12.4668ZM5.625 14.7335H12.375V15.8668H5.625V14.7335Z" fill="#E30613"/>
<path d="M13.5 3.4V0H4.5V3.4V5.66667H13.5V3.4Z" fill="#E30613"/>
<path d="M15.75 3.3999H14.625V5.66657V6.7999H3.375V5.66657V3.3999H2.25C1.125 3.3999 0 4.53324 0 5.66657V11.3332C0 12.4666 1.125 13.5999 2.25 13.5999H3.375V11.3332V10.1999H14.625V11.3332V13.5999H15.75C16.875 13.5999 18 12.4666 18 11.3332V5.66657C18 4.53324 16.875 3.3999 15.75 3.3999Z" fill="#E30613"/>
</svg>
