<svg width="17" height="17" viewBox="0 0 17 17" fill="none" xmlns="http://www.w3.org/2000/svg">
<path d="M14.5793 13.3814L12.6445 10.8347C12.2589 10.3293 11.5188 10.2429 10.9948 10.6431L9.71412 11.6205C9.6482 11.5715 9.58001 11.5204 9.50838 11.4663C8.84975 10.9744 7.94842 10.3005 7.06197 9.13291C6.17278 7.96278 5.76386 6.91112 5.46472 6.14333C5.43319 6.06202 5.40305 5.98365 5.3729 5.90902L6.23228 5.25399L6.65492 4.93094C7.17971 4.53021 7.29257 3.79213 6.90817 3.28557L4.97343 0.738648C4.58894 0.232716 3.84844 0.146272 3.32365 0.547L2.60673 1.09755L2.62164 1.11704C2.3735 1.35894 2.1545 1.64703 1.97742 1.9657C1.81282 2.26957 1.69596 2.56498 1.62 2.86656C0.992068 5.28245 1.80805 7.67848 4.43467 11.1355C8.06551 15.9137 11.4936 16.0538 11.6418 16.058C11.965 16.063 12.2801 16.0281 12.6062 15.9494C12.9566 15.8641 13.2917 15.7293 13.59 15.5543L13.6022 15.5684L14.3262 15.0277C14.85 14.6269 14.9634 13.8886 14.5793 13.3814Z" fill="#E30613"/>
</svg>
