<svg width="24" height="24" viewBox="0 0 24 24" fill="none" xmlns="http://www.w3.org/2000/svg">
<path d="M21.1946 18.9138L18.46 15.3143C17.915 14.6 16.8688 14.4779 16.1282 15.0435L14.3182 16.4249C14.225 16.3557 14.1286 16.2835 14.0274 16.207C13.0965 15.5118 11.8225 14.5592 10.5696 12.909C9.31288 11.2552 8.73491 9.76878 8.3121 8.6836C8.26755 8.56867 8.22494 8.4579 8.18234 8.35242L9.39697 7.42661L9.99433 6.97002C10.7361 6.40363 10.8956 5.36044 10.3523 4.64448L7.61772 1.04469C7.07429 0.329608 6.02767 0.207429 5.28595 0.773814L4.27265 1.55195L4.29374 1.57949C3.94301 1.9214 3.63349 2.32858 3.38321 2.77899C3.15056 3.20847 2.98539 3.626 2.87802 4.05226C1.99052 7.46684 3.14381 10.8534 6.85625 15.7394C11.988 22.4929 16.8333 22.6909 17.0427 22.6969C17.4995 22.7039 17.9449 22.6545 18.4058 22.5434C18.9011 22.4229 19.3746 22.2323 19.7964 21.9849L19.8135 22.0049L20.8368 21.2406C21.5771 20.6741 21.7375 19.6307 21.1946 18.9138Z" fill="#828282"/>
</svg>
