<svg width="17" height="17" viewBox="0 0 17 17" fill="none" xmlns="http://www.w3.org/2000/svg">
<path fill-rule="evenodd" clip-rule="evenodd" d="M11.7143 6.85714C11.7143 9.53967 9.53967 11.7143 6.85714 11.7143C4.17462 11.7143 2 9.53967 2 6.85714C2 4.17462 4.17462 2 6.85714 2C9.53967 2 11.7143 4.17462 11.7143 6.85714ZM10.9472 12.3614C9.80536 13.2113 8.38999 13.7143 6.85714 13.7143C3.07005 13.7143 0 10.6442 0 6.85714C0 3.07005 3.07005 0 6.85714 0C10.6442 0 13.7143 3.07005 13.7143 6.85714C13.7143 8.38999 13.2113 9.80536 12.3614 10.9472L16.3262 14.9119C16.7167 15.3025 16.7167 15.9356 16.3262 16.3262C15.9356 16.7167 15.3025 16.7167 14.9119 16.3262L10.9472 12.3614Z" fill="#333333"/>
</svg>
