<svg width="17" height="17" viewBox="0 0 17 17" fill="none" xmlns="http://www.w3.org/2000/svg">
<path fill-rule="evenodd" clip-rule="evenodd" d="M12.7143 6.85714C12.7143 10.092 10.092 12.7143 6.85714 12.7143C3.62233 12.7143 1 10.092 1 6.85714C1 3.62233 3.62233 1 6.85714 1C10.092 1 12.7143 3.62233 12.7143 6.85714ZM11.3395 12.0466C10.1375 13.0857 8.57073 13.7143 6.85714 13.7143C3.07005 13.7143 0 10.6442 0 6.85714C0 3.07005 3.07005 0 6.85714 0C10.6442 0 13.7143 3.07005 13.7143 6.85714C13.7143 8.57073 13.0857 10.1375 12.0466 11.3395L15.9726 15.2655C16.1679 15.4608 16.1679 15.7773 15.9726 15.9726C15.7773 16.1679 15.4608 16.1679 15.2655 15.9726L11.3395 12.0466Z" fill="#C4C4C4"/>
</svg>
