<svg width="18" height="23" viewBox="0 0 18 23" fill="none" xmlns="http://www.w3.org/2000/svg">
<path d="M8.79375 0C3.94511 0 9.13894e-08 3.79865 9.13894e-08 8.46776C9.13894e-08 9.68565 0.258884 10.8485 0.769074 11.9242C2.96776 16.5568 7.18324 21.4479 8.42315 22.8364C8.51604 22.9402 8.65147 23 8.794 23C8.93652 23 9.07195 22.9402 9.16484 22.8364C10.4043 21.4481 14.6197 16.5573 16.8192 11.9242C17.3296 10.8485 17.5882 9.68565 17.5882 8.46776C17.5877 3.79865 13.6426 0 8.79375 0ZM8.79375 12.8659C6.27507 12.8659 4.22575 10.8927 4.22575 8.46753C4.22575 6.04211 6.27507 4.06888 8.79375 4.06888C11.3124 4.06888 13.3618 6.04211 13.3618 8.46753C13.362 10.8927 11.3127 12.8659 8.79375 12.8659Z" fill="#828282"/>
</svg>
