<svg width="13" height="16" viewBox="0 0 13 16" fill="none" xmlns="http://www.w3.org/2000/svg">
<path d="M6.11739 0C2.74443 0 6.35752e-08 2.64254 6.35752e-08 5.89062C6.35752e-08 6.73784 0.180093 7.54675 0.535008 8.29507C2.06453 11.5178 4.99704 14.9203 5.85958 15.8862C5.9242 15.9584 6.01842 16 6.11756 16C6.21671 16 6.31092 15.9584 6.37554 15.8862C7.23775 14.9204 10.1703 11.5181 11.7003 8.29507C12.0554 7.54675 12.2353 6.73784 12.2353 5.89062C12.235 2.64254 9.49053 0 6.11739 0ZM6.11739 8.95022C4.36527 8.95022 2.93965 7.57753 2.93965 5.89045C2.93965 4.20321 4.36527 2.83052 6.11739 2.83052C7.86952 2.83052 9.29513 4.20321 9.29513 5.89045C9.2953 7.57753 7.86969 8.95022 6.11739 8.95022Z" fill="#E30613"/>
</svg>
